<?xml version="1.0" standalone="no"?>
<!DOCTYPE svg PUBLIC "-//W3C//DTD SVG 20010904//EN"
 "http://www.w3.org/TR/2001/REC-SVG-20010904/DTD/svg10.dtd">
<svg version="1.0" xmlns="http://www.w3.org/2000/svg"
 width="259.000000pt" height="194.000000pt" viewBox="0 0 259.000000 194.000000"
 preserveAspectRatio="xMidYMid meet">

<g transform="translate(0.000000,194.000000) scale(0.100000,-0.100000)"
fill="#000000" stroke="none">
<path d="M1492 1239 c-89 -45 -125 -152 -80 -239 13 -25 30 -45 38 -46 8 0 29
-8 47 -17 90 -48 199 9 211 108 7 66 -29 140 -76 156 -73 24 -148 -22 -157
-97 -4 -35 -4 -36 4 -11 13 40 28 54 66 67 28 9 41 8 68 -5 63 -29 75 -98 27
-147 -32 -31 -36 -32 -135 -15 -50 9 -73 121 -36 181 35 55 108 84 170 66 26
-7 32 -7 23 2 -6 6 -38 13 -69 15 -45 3 -68 -1 -101 -18z"/>
<path d="M934 1230 c-29 -12 -54 -49 -54 -80 0 -35 33 -64 98 -85 45 -14 53
-20 50 -38 -3 -20 -9 -22 -70 -22 -63 0 -67 -1 -71 -25 -3 -14 -3 -27 0 -30 2
-3 35 -5 73 -5 90 0 124 22 128 84 4 53 -6 66 -71 87 -29 9 -59 23 -67 31 -13
13 -13 16 5 29 15 12 33 14 73 9 50 -6 52 -6 52 18 0 17 -7 27 -22 31 -32 8
-99 6 -124 -4z"/>
<path d="M365 1099 c-28 -73 -51 -136 -53 -140 -2 -5 9 -9 25 -9 19 0 39 10
58 30 15 16 43 35 62 41 41 13 34 29 -12 29 l-35 0 21 53 c11 28 22 53 23 55
2 1 23 -45 46 -103 43 -103 44 -105 76 -105 l33 0 -57 140 -57 140 -40 0 -40
0 -50 -131z"/>
<path d="M660 1090 l0 -140 95 0 c94 0 95 0 95 25 0 23 -4 24 -62 27 l-63 3
-3 113 -3 112 -29 0 -30 0 0 -140z"/>
<path d="M1120 1205 c0 -23 4 -25 45 -25 l45 0 0 -115 0 -115 35 0 35 0 0 115
0 115 45 0 c41 0 45 2 45 25 l0 25 -125 0 -125 0 0 -25z"/>
<path d="M1800 1090 l0 -140 35 0 35 0 0 86 0 87 37 -48 36 -48 19 26 c10 14
27 36 38 49 l19 23 1 -87 0 -88 30 0 30 0 0 140 0 140 -28 0 c-22 0 -36 -11
-66 -50 -21 -27 -41 -50 -45 -50 -3 0 -22 23 -41 50 -30 42 -40 50 -67 50
l-33 0 0 -140z"/>
<path d="M1736 1153 c4 -10 10 -40 13 -68 6 -47 7 -48 13 -19 8 36 -8 104 -24
104 -6 0 -7 -7 -2 -17z"/>
</g>
</svg>
