<?xml version="1.0" standalone="no"?>
<!DOCTYPE svg PUBLIC "-//W3C//DTD SVG 20010904//EN"
 "http://www.w3.org/TR/2001/REC-SVG-20010904/DTD/svg10.dtd">
<svg version="1.0" xmlns="http://www.w3.org/2000/svg"
 width="299.000000pt" height="169.000000pt" viewBox="0 0 299.000000 169.000000"
 preserveAspectRatio="xMidYMid meet">

<g transform="translate(0.000000,169.000000) scale(0.100000,-0.100000)"
fill="#000000" stroke="none">
<path d="M319 1245 c-142 -50 -215 -133 -254 -288 -22 -87 -23 -191 -2 -239
13 -32 60 -107 89 -143 5 -5 17 -22 29 -37 11 -16 26 -28 34 -28 7 0 18 -7 26
-16 31 -37 84 -54 156 -48 76 6 261 67 281 92 6 9 12 12 12 6 0 -5 9 2 20 16
10 14 21 22 24 19 4 -3 -3 -18 -15 -33 -12 -15 -19 -29 -16 -32 5 -6 77 75 74
85 0 3 5 17 12 30 25 45 23 207 -3 234 -21 22 -43 62 -50 91 -4 17 -17 44 -29
60 -24 36 -67 78 -67 68 0 -4 -4 -2 -8 3 -4 6 -33 23 -65 38 -49 25 -69 29
-135 28 -90 -1 -131 -11 -184 -46 -48 -32 -53 -9 -5 28 35 26 169 87 194 87 9
0 11 5 7 13 -6 9 -5 9 8 -1 12 -10 18 -9 28 3 14 16 17 15 -80 20 -25 1 -61
-3 -81 -10z m274 -330 c34 -38 46 -81 40 -142 -7 -69 -37 -129 -75 -149 -59
-30 -242 -5 -227 31 4 10 12 10 124 -1 52 -5 64 -3 88 16 39 31 59 76 61 134
1 42 -5 59 -31 98 -18 26 -33 50 -33 54 0 8 28 -14 53 -41z m122 4 c10 -30 0
-33 -13 -4 -6 14 -7 25 -2 25 5 0 12 -9 15 -21z m12 -71 c-3 -8 -6 -5 -6 6 -1
11 2 17 5 13 3 -3 4 -12 1 -19z m-42 -268 c-3 -5 -11 -10 -16 -10 -6 0 -7 5
-4 10 3 6 11 10 16 10 6 0 7 -4 4 -10z"/>
<path d="M487 1228 c-15 -9 5 -16 61 -20 46 -4 48 -3 29 16 -13 14 -70 16 -90
4z"/>
<path d="M605 1200 c3 -5 11 -10 16 -10 6 0 7 5 4 10 -3 6 -11 10 -16 10 -6 0
-7 -4 -4 -10z"/>
<path d="M1184 1136 c-126 -57 -45 -214 92 -177 46 12 69 34 79 74 l7 27 -66
0 c-52 0 -66 -3 -66 -15 0 -11 11 -15 41 -15 47 0 49 -17 4 -39 -58 -28 -137
25 -120 80 8 23 54 49 87 49 13 0 34 -7 46 -16 15 -10 27 -12 38 -6 15 8 14
12 -9 27 -36 23 -96 28 -133 11z"/>
<path d="M1740 1139 c-45 -18 -70 -50 -70 -89 0 -118 214 -131 236 -15 14 78
-81 138 -166 104z m111 -45 c38 -34 17 -91 -39 -109 -30 -9 -90 12 -103 37
-37 70 79 129 142 72z"/>
<path d="M1410 1050 c0 -83 1 -90 20 -90 16 0 20 7 20 35 0 35 0 35 44 35 38
0 46 -4 67 -35 13 -19 32 -35 42 -35 18 0 18 2 -2 33 -20 32 -20 33 -1 45 24
15 27 64 4 86 -12 12 -37 16 -105 16 l-89 0 0 -90z m175 35 c0 -18 -8 -20 -67
-23 -67 -3 -68 -3 -68 23 0 26 1 26 68 23 59 -3 67 -5 67 -23z"/>
<path d="M1960 1070 c0 -84 15 -105 84 -115 34 -5 54 -3 83 11 l38 19 3 78 c2
64 0 77 -13 77 -12 0 -15 -13 -15 -64 0 -76 -13 -91 -77 -91 -58 0 -73 20 -73
97 0 45 -3 58 -15 58 -12 0 -15 -14 -15 -70z"/>
<path d="M2240 1050 c0 -73 3 -90 15 -90 10 0 15 11 15 35 l0 35 73 0 c59 0
77 4 90 18 21 23 21 41 1 70 -14 20 -23 22 -105 22 l-89 0 0 -90z m168 33 c3
-22 0 -23 -67 -23 -69 0 -71 1 -71 25 0 26 1 26 68 23 61 -3 67 -5 70 -25z"/>
<path d="M2500 1050 l0 -90 95 0 c78 0 95 3 95 15 0 12 -16 15 -80 15 -79 0
-80 0 -80 25 0 24 3 25 55 25 42 0 55 3 55 15 0 12 -13 15 -55 15 -48 0 -55 2
-55 20 0 18 7 20 80 20 64 0 80 3 80 15 0 12 -17 15 -95 15 l-95 0 0 -90z"/>
<path d="M820 939 c0 -13 5 -31 10 -39 7 -11 8 -5 4 20 -8 43 -14 51 -14 19z"/>
<path d="M825 859 c-4 -6 -5 -12 -2 -15 2 -3 7 2 10 11 7 17 1 20 -8 4z"/>
<path d="M2228 850 c-47 -14 -96 -49 -117 -84 -25 -40 -28 -123 -7 -164 61
-118 274 -147 386 -54 l34 29 -28 15 c-27 14 -32 14 -63 -8 -94 -64 -240 -31
-272 62 -12 36 -12 44 4 77 24 52 76 77 156 77 48 0 72 -6 105 -25 35 -21 47
-23 70 -15 26 10 26 11 8 32 -36 39 -113 68 -184 67 -36 0 -77 -4 -92 -9z"/>
<path d="M1120 675 l0 -177 179 4 c164 3 182 5 208 24 15 11 30 32 34 45 8 33
-7 81 -32 99 l-20 16 20 19 c29 25 27 77 -3 112 l-24 28 -181 3 -181 3 0 -176z
m340 96 c13 -25 13 -27 -6 -45 -12 -13 -40 -16 -140 -16 l-124 0 0 40 0 40
130 0 c118 0 130 -2 140 -19z m2 -138 c24 -21 23 -39 -4 -57 -17 -12 -50 -16
-145 -16 l-123 0 0 45 0 45 127 0 c104 0 130 -3 145 -17z"/>
<path d="M1630 675 l0 -175 30 0 30 0 0 65 0 65 120 0 c131 0 176 11 204 51
33 48 12 134 -39 157 -17 8 -83 12 -185 12 l-160 0 0 -175z m318 103 c19 -19
15 -66 -8 -78 -12 -6 -66 -9 -132 -8 l-113 3 -3 48 -3 47 123 0 c83 0 128 -4
136 -12z"/>
<path d="M2610 675 l0 -175 185 0 185 0 0 30 0 30 -150 0 -150 0 0 45 0 44
103 3 102 3 3 28 3 27 -105 0 -106 0 0 40 0 40 150 0 150 0 0 30 0 30 -185 0
-185 0 0 -175z"/>
</g>
</svg>
