<?xml version="1.0" standalone="no"?>
<!DOCTYPE svg PUBLIC "-//W3C//DTD SVG 20010904//EN"
 "http://www.w3.org/TR/2001/REC-SVG-20010904/DTD/svg10.dtd">
<svg version="1.0" xmlns="http://www.w3.org/2000/svg"
 width="620.000000pt" height="345.000000pt" viewBox="0 0 620.000000 345.000000"
 preserveAspectRatio="xMidYMid meet">

<g transform="translate(0.000000,345.000000) scale(0.100000,-0.100000)"
fill="#000000" stroke="none">
<path d="M2964 2413 c-11 -2 -28 -19 -37 -37 -8 -19 -42 -55 -74 -82 -106 -88
-209 -198 -233 -248 -24 -50 -42 -196 -24 -196 5 0 18 24 28 52 27 77 132 177
270 259 129 76 194 135 230 207 l26 52 -82 -1 c-46 -1 -92 -4 -104 -6z"/>
<path d="M3194 2191 c-55 -10 -136 -30 -180 -45 -269 -90 -448 -292 -379 -426
9 -17 19 -30 23 -30 4 0 16 23 26 52 23 65 99 142 181 182 145 70 269 95 517
103 l178 6 -6 26 c-4 14 -20 54 -36 89 l-29 62 -97 -1 c-53 0 -142 -9 -198
-18z"/>
<path d="M3335 1989 c-348 -34 -558 -165 -542 -337 10 -99 82 -180 177 -198
l34 -7 -22 28 c-49 62 -46 139 8 193 66 67 166 93 383 99 l168 6 10 25 c6 14
13 61 16 105 5 62 3 81 -8 88 -16 10 -111 10 -224 -2z m145 -53 c0 -18 6 -25
23 -28 14 -2 23 -11 25 -25 3 -19 -1 -23 -22 -23 -21 0 -26 -5 -26 -25 0 -20
-5 -25 -25 -25 -20 0 -25 5 -25 25 0 20 -5 25 -25 25 -20 0 -25 5 -25 25 0 20
5 25 25 25 20 0 25 5 25 25 0 20 5 25 25 25 20 0 25 -5 25 -24z"/>
<path d="M3875 1341 c-47 -21 -74 -57 -82 -109 -4 -20 -13 -42 -22 -49 -14
-11 -14 -12 2 -13 15 0 17 -11 17 -89 0 -82 -2 -91 -22 -105 -21 -15 -18 -16
57 -15 70 1 76 2 48 11 l-33 11 0 93 0 94 40 0 c29 0 40 4 40 15 0 11 -11 15
-40 15 l-40 0 0 41 c0 60 14 79 58 79 21 0 43 -5 49 -11 15 -15 43 -4 43 16 0
15 -37 35 -63 35 -7 0 -30 -9 -52 -19z"/>
<path d="M2750 1324 c-11 -12 -10 -18 3 -32 16 -15 18 -15 34 0 13 14 14 20 3
32 -7 9 -16 16 -20 16 -4 0 -13 -7 -20 -16z"/>
<path d="M3647 1334 c-10 -10 -9 -42 2 -48 18 -11 42 6 39 28 -3 21 -28 33
-41 20z"/>
<path d="M2083 1300 c-23 -14 -34 -29 -39 -55 -9 -51 16 -81 101 -125 74 -38
92 -64 73 -105 -13 -30 -52 -44 -96 -34 -36 7 -72 35 -72 55 0 7 -4 16 -10 19
-6 4 -10 -13 -10 -43 l0 -49 65 -7 c139 -14 215 47 174 138 -8 16 -40 40 -89
66 -43 22 -81 47 -84 56 -18 48 10 84 67 84 39 0 77 -27 77 -55 0 -8 5 -15 10
-15 6 0 10 20 10 45 l0 45 -72 0 c-55 0 -81 -5 -105 -20z"/>
<path d="M3295 1310 c3 -5 13 -10 20 -10 23 0 28 -42 23 -178 -5 -116 -7 -127
-28 -144 -23 -18 -21 -19 110 -16 l134 3 8 33 c12 46 5 76 -9 42 -6 -14 -17
-31 -24 -37 -19 -16 -84 -26 -114 -19 l-26 7 3 152 c3 149 3 152 26 155 12 2
22 8 22 13 0 5 -34 9 -76 9 -47 0 -73 -4 -69 -10z"/>
<path d="M2304 1188 c3 -7 25 -61 48 -120 24 -59 49 -108 55 -108 7 0 28 30
47 68 38 75 36 75 67 -26 7 -23 18 -42 26 -42 7 0 31 38 53 85 21 47 48 98 59
114 12 16 21 32 21 35 0 3 -18 6 -40 6 -22 0 -40 -4 -40 -10 0 -5 7 -10 15
-10 8 0 15 -5 15 -10 0 -14 -50 -133 -60 -143 -8 -9 -50 104 -50 135 0 10 7
18 15 18 8 0 15 5 15 10 0 6 -25 10 -55 10 -30 0 -55 -4 -55 -10 0 -5 4 -10 9
-10 5 0 14 -13 21 -29 10 -25 8 -35 -15 -82 -31 -60 -32 -59 -66 38 -23 68
-23 73 -4 73 8 0 15 5 15 10 0 6 -23 10 -51 10 -37 0 -50 -3 -45 -12z"/>
<path d="M2726 1184 c-28 -16 -28 -16 -7 -30 18 -13 21 -25 21 -88 0 -65 -3
-75 -22 -89 -22 -15 -19 -16 47 -16 58 0 66 2 48 11 -22 10 -23 17 -23 120 0
119 -3 124 -64 92z"/>
<path d="M2897 1189 c-26 -15 -39 -56 -27 -80 6 -10 28 -28 49 -39 41 -21 71
-46 71 -60 0 -16 -31 -40 -51 -40 -12 0 -34 13 -50 29 l-29 29 0 -33 c0 -32 2
-34 45 -40 63 -10 119 18 123 61 3 33 -21 60 -87 96 -24 13 -32 24 -29 40 4
32 62 38 80 9 18 -29 30 -26 26 7 -3 25 -7 27 -53 29 -27 2 -58 -2 -68 -8z"/>
<path d="M3104 1186 c-46 -33 -35 -85 24 -115 42 -22 72 -47 72 -61 0 -16 -31
-40 -51 -40 -12 0 -34 13 -50 29 l-29 29 0 -33 c0 -32 2 -34 45 -40 62 -10
119 18 123 60 3 39 -3 47 -63 82 -38 23 -50 35 -50 54 0 20 6 25 32 27 24 2
35 -2 45 -17 18 -29 30 -26 26 7 -3 25 -7 27 -53 30 -32 2 -57 -3 -71 -12z"/>
<path d="M3628 1184 c-27 -14 -28 -14 -8 -34 34 -34 25 -160 -14 -178 -16 -8
-5 -11 54 -11 67 -1 72 1 50 12 -24 12 -25 16 -25 120 0 117 -3 121 -57 91z"/>
<path d="M3979 1172 c-53 -47 -57 -153 -8 -198 37 -34 159 -13 159 27 0 8 -5
7 -15 -1 -21 -17 -83 -15 -105 5 -19 17 -35 63 -25 73 3 3 35 10 72 16 58 10
68 15 71 33 2 14 -7 32 -22 48 -35 35 -86 34 -127 -3z m85 -8 c26 -25 19 -42
-21 -53 -59 -17 -66 -15 -58 16 13 53 47 69 79 37z"/>
</g>
</svg>
