<?xml version="1.0" standalone="no"?>
<!DOCTYPE svg PUBLIC "-//W3C//DTD SVG 20010904//EN"
 "http://www.w3.org/TR/2001/REC-SVG-20010904/DTD/svg10.dtd">
<svg version="1.0" xmlns="http://www.w3.org/2000/svg"
 width="225.000000pt" height="225.000000pt" viewBox="0 0 225.000000 225.000000"
 preserveAspectRatio="xMidYMid meet">

<g transform="translate(0.000000,225.000000) scale(0.100000,-0.100000)"
fill="#000000" stroke="none">
<path d="M711 1902 c-6 -9 -11 -12 -11 -5 0 7 -7 10 -15 7 -8 -4 -13 -9 -11
-13 3 -4 -3 -7 -13 -7 -36 0 -196 -110 -281 -194 -113 -111 -155 -191 -155
-295 1 -85 22 -131 90 -194 60 -55 148 -96 260 -121 132 -29 152 -27 89 9
-196 113 -243 352 -113 573 36 60 58 88 138 174 46 48 55 63 45 72 -10 9 -15
8 -23 -6z m-340 -687 c11 -4 19 -10 19 -15 0 -5 16 -18 36 -30 53 -33 33 -36
-26 -4 -50 27 -120 94 -120 115 0 5 16 -6 36 -25 20 -20 45 -38 55 -41z"/>
<path d="M940 1757 c0 -3 21 -12 48 -22 26 -10 64 -29 84 -42 35 -22 47 -23
196 -23 140 0 161 2 175 18 9 10 18 29 19 43 l3 24 -262 3 c-145 1 -263 1
-263 -1z"/>
<path d="M1375 1652 l-250 -3 -20 -32 c-26 -41 -86 -77 -220 -132 -60 -24
-107 -45 -104 -45 4 0 148 36 320 79 173 44 372 91 443 106 127 25 168 37 110
33 -16 -2 -141 -4 -279 -6z"/>
<path d="M1098 1496 c-130 -33 -235 -62 -234 -64 2 -1 88 0 192 4 l189 7 28
30 c26 28 72 89 65 86 -2 -1 -110 -29 -240 -63z"/>
<path d="M1830 1391 c7 -14 6 -20 -5 -24 -7 -3 -15 -2 -17 4 -2 5 -26 -14 -53
-42 -38 -39 -43 -47 -20 -33 100 62 131 96 99 108 -11 4 -12 1 -4 -13z"/>
<path d="M696 1301 c10 -18 30 -42 44 -52 14 -10 32 -24 40 -31 8 -7 17 -12
20 -11 3 0 24 -7 47 -18 23 -10 84 -24 135 -30 80 -10 107 -9 188 5 52 10 100
18 107 19 7 0 10 3 8 7 -2 4 -35 0 -72 -8 -135 -28 -345 1 -426 59 -15 11 -33
17 -39 13 -6 -4 -8 -3 -5 3 3 5 -10 25 -30 44 l-37 34 20 -34z"/>
<path d="M1318 1203 c7 -3 16 -2 19 1 4 3 -2 6 -13 5 -11 0 -14 -3 -6 -6z"/>
<path d="M229 863 c-6 -32 -12 -83 -13 -113 l-1 -55 88 -3 c73 -2 87 0 87 13
0 12 -14 15 -70 15 -81 0 -79 -4 -56 115 10 52 11 72 2 77 -20 14 -24 8 -37
-49z"/>
<path d="M525 905 c-50 -18 -61 -34 -75 -104 -6 -31 -13 -68 -16 -83 -5 -23
-2 -28 14 -28 20 0 32 24 32 68 0 21 4 22 70 22 l70 0 -6 -32 c-3 -18 -8 -39
-10 -46 -3 -9 4 -12 18 -10 19 3 24 13 35 78 7 41 11 85 8 97 -10 41 -79 60
-140 38z m83 -31 c15 -10 22 -24 20 -37 -3 -20 -10 -22 -71 -25 -67 -3 -69 -3
-62 20 15 52 70 72 113 42z"/>
<path d="M854 905 c-5 -18 -34 -190 -34 -202 0 -7 9 -13 20 -13 14 0 20 7 20
23 1 60 8 67 72 67 52 0 63 3 89 29 33 34 37 61 12 84 -21 18 -174 29 -179 12z
m137 -25 c47 -26 8 -70 -62 -70 -52 0 -57 6 -43 58 5 18 13 22 46 22 22 0 48
-5 59 -10z"/>
<path d="M1165 906 c-50 -22 -65 -47 -72 -118 -5 -63 -5 -66 21 -83 20 -13 41
-16 88 -13 52 4 65 9 88 35 30 34 48 120 31 152 -20 37 -101 51 -156 27z m105
-34 c19 -16 21 -23 15 -66 -10 -64 -33 -86 -89 -86 -57 0 -70 16 -63 77 9 79
82 119 137 75z"/>
<path d="M1465 913 c-28 -6 -62 -34 -69 -59 -10 -32 14 -53 74 -64 64 -12 79
-23 64 -48 -13 -20 -102 -29 -133 -13 -14 8 -22 7 -31 -4 -10 -12 -7 -16 15
-25 36 -14 121 -13 148 2 76 40 56 99 -38 115 -41 7 -51 12 -53 31 -5 32 36
49 85 34 30 -9 40 -9 52 2 21 22 -54 41 -114 29z"/>
<path d="M1951 903 c-48 -17 -65 -44 -76 -119 -6 -48 -5 -53 21 -73 22 -17 40
-21 100 -21 59 0 74 3 74 15 0 12 -14 15 -64 15 -69 0 -96 14 -96 51 0 17 8
19 81 19 60 0 80 3 77 13 -3 8 -29 13 -72 14 -38 1 -70 4 -72 6 -3 2 -2 12 2
21 11 28 59 46 124 46 33 0 60 4 60 9 0 14 -120 17 -159 4z"/>
<path d="M1640 900 c0 -5 18 -10 40 -10 22 0 40 -3 40 -7 0 -5 -7 -46 -15 -93
-19 -105 -19 -100 3 -100 16 0 22 16 37 100 l17 100 44 0 c24 0 44 5 44 10 0
6 -42 10 -105 10 -63 0 -105 -4 -105 -10z"/>
<path d="M206 573 c-5 -20 -56 -286 -56 -296 0 -4 13 -7 29 -7 l29 0 24 128
25 127 41 3 c50 4 50 8 22 -138 -25 -129 -25 -120 4 -120 29 0 30 1 52 148
l18 112 31 0 c19 0 39 -8 49 -19 16 -17 16 -25 1 -112 -9 -52 -18 -102 -21
-111 -4 -14 1 -18 24 -18 29 0 30 2 41 63 6 35 14 91 17 125 12 110 -23 132
-213 132 -98 0 -112 -2 -117 -17z m34 -2 c0 -5 -7 -11 -15 -15 -15 -5 -20 5
-8 17 9 10 23 9 23 -2z"/>
<path d="M706 576 c-67 -25 -94 -61 -111 -149 -13 -70 -13 -81 1 -108 41 -81
227 -77 291 5 26 32 49 159 37 194 -5 14 -21 34 -35 44 -35 26 -131 33 -183
14z m71 -2 c-3 -3 -12 -4 -19 -1 -8 3 -5 6 6 6 11 1 17 -2 13 -5z m-40 -10
c-3 -3 -12 -4 -19 -1 -8 3 -5 6 6 6 11 1 17 -2 13 -5z m111 -44 c26 -24 26
-35 8 -114 -18 -76 -42 -95 -115 -96 -37 0 -60 5 -73 17 -35 31 -16 152 30
190 37 31 118 32 150 3z"/>
<path d="M1000 571 c0 -3 -11 -69 -25 -145 -14 -77 -25 -144 -25 -148 0 -4 45
-8 100 -8 146 0 199 26 200 100 0 26 -6 39 -22 49 l-22 13 27 14 c15 8 29 25
33 38 6 27 2 68 -7 64 -3 -2 -14 5 -24 15 -15 16 -33 18 -126 16 -60 -1 -109
-5 -109 -8z m198 -43 c19 -19 14 -45 -10 -62 -15 -11 -45 -16 -86 -16 l-64 0
6 31 c3 17 6 38 6 45 0 18 130 20 148 2z m-11 -145 c14 -20 13 -24 -11 -48
-22 -22 -34 -25 -92 -25 l-67 0 7 38 c3 20 6 43 6 50 0 10 18 12 71 10 61 -3
74 -6 86 -25z"/>
<path d="M1331 448 c-12 -73 -25 -143 -28 -155 -4 -20 -1 -23 26 -23 17 0 31
1 31 3 0 2 11 66 25 143 14 76 25 145 25 152 0 7 -12 12 -28 12 l-28 0 -23
-132z m49 118 c0 -3 -4 -8 -10 -11 -5 -3 -10 -1 -10 4 0 6 5 11 10 11 6 0 10
-2 10 -4z"/>
<path d="M1514 571 c19 -7 19 -8 -1 -28 -15 -15 -25 -50 -39 -131 -24 -145
-27 -142 122 -142 107 0 114 1 114 20 0 19 -7 20 -90 20 -66 0 -92 4 -96 13
-3 8 4 65 16 127 11 62 20 117 20 122 0 4 -15 8 -32 7 -26 0 -29 -2 -14 -8z"/>
<path d="M1862 573 c-6 -2 -10 -9 -7 -14 4 -5 -1 -6 -9 -3 -31 12 -72 -46 -85
-117 -15 -90 -14 -102 12 -127 35 -33 72 -42 168 -42 88 0 89 0 89 25 0 25 0
25 -95 25 -89 0 -95 1 -111 25 -8 13 -14 32 -12 42 3 16 16 18 105 21 91 2
101 5 106 22 5 19 0 20 -98 20 -97 0 -103 1 -98 19 3 11 16 30 30 43 21 20 37
23 116 27 84 3 106 10 107 34 0 8 -197 9 -218 0z m41 -10 c-7 -2 -19 -2 -25 0
-7 3 -2 5 12 5 14 0 19 -2 13 -5z"/>
</g>
</svg>
