<?xml version="1.0" standalone="no"?>
<!DOCTYPE svg PUBLIC "-//W3C//DTD SVG 20010904//EN"
 "http://www.w3.org/TR/2001/REC-SVG-20010904/DTD/svg10.dtd">
<svg version="1.0" xmlns="http://www.w3.org/2000/svg"
 width="204.000000pt" height="247.000000pt" viewBox="0 0 204.000000 247.000000"
 preserveAspectRatio="xMidYMid meet">

<g transform="translate(0.000000,247.000000) scale(0.100000,-0.100000)"
fill="#000000" stroke="none">
<path d="M113 1675 c-97 -21 -103 -27 -103 -90 0 -30 2 -55 4 -55 2 0 22 7 45
15 23 8 77 19 120 24 154 20 288 -22 421 -129 36 -29 92 -66 125 -84 63 -33
71 -33 285 -23 l45 2 7 -68 c7 -79 16 -93 62 -101 42 -8 53 -21 58 -66 3 -36
11 -40 63 -29 17 3 21 -3 25 -44 6 -50 20 -67 56 -67 48 0 48 -22 0 -142 -110
-276 -150 -558 -106 -755 l12 -53 55 0 c43 0 54 3 50 14 -36 94 -33 327 7 496
29 125 64 232 112 348 54 130 46 152 -66 184 -46 13 -51 20 -65 91 -4 22 -11
27 -33 27 -15 0 -34 -6 -40 -12 -10 -10 -12 -4 -10 32 3 45 3 45 -44 67 -44
21 -47 26 -53 70 -17 126 -22 131 -146 114 -168 -23 -207 -12 -332 90 -159
129 -369 184 -554 144z"/>
</g>
</svg>
